<svg width="720" height="720" xmlns="http://www.w3.org/2000/svg" xmlns:xlink="http://www.w3.org/1999/xlink" xml:space="preserve" overflow="hidden"><g transform="translate(-280 0)"><g><path d="M215.719 561.037C135.281 516.938 66.4313 479.362 62.7188 477.562 55.0125 473.85 51.8062 471.712 46.8 466.706 33.2437 453.431 26.2687 433.237 28.125 412.762 29.6437 395.944 34.8187 384.3 45.7312 373.331L51.8062 367.2 48.15 363.825C41.2875 357.581 35.2125 348.244 31.8375 338.737 26.775 324.562 26.55 306.9 31.3312 292.219 34.4813 282.431 41.4 271.913 48.6562 265.95L52.2 263.025 49.8937 261C39.15 252 31.8375 238.725 28.9125 223.031 27.7875 216.956 27.675 205.2 28.6875 198.844 32.625 173.812 48.7687 155.644 72.3937 149.625 74.8125 149.006 89.55 145.744 105.188 142.369 130.725 136.8 250.031 110.587 355.5 87.4125 387.394 80.3812 395.775 78.6937 398.25 78.9187 401.175 79.1437 410.175 84.15 544.781 159.919 657.394 223.312 688.556 241.087 689.85 242.662 692.269 245.644 692.606 250.425 690.581 253.8 687.881 258.469 682.087 260.1 677.081 257.569 675.787 256.894 612.225 221.175 535.781 178.144 459.394 135.113 396.45 99.8438 395.944 99.7312 395.438 99.5625 363.206 106.481 324.225 115.031 285.3 123.581 234.45 134.775 211.219 139.837 188.044 144.956 151.2 153.056 129.375 157.837 107.55 162.619 86.2312 167.287 81.9562 168.188 71.0437 170.494 65.925 172.969 59.9062 179.1 52.875 186.131 49.5562 193.556 48.375 204.862 47.3062 214.762 48.8812 223.819 53.1562 232.594 58.1625 242.944 66.15 249.806 75.2625 251.719L78.975 252.506 118.631 243.787C140.456 239.006 184.162 229.387 215.719 222.469 341.944 194.737 376.481 187.144 386.156 185.006 392.456 183.6 397.125 182.812 398.531 182.981 400.219 183.15 436.219 203.175 543.881 263.756 622.575 308.081 687.544 344.7 688.219 345.15 688.894 345.544 690.019 346.95 690.694 348.244 692.325 351.112 692.156 356.287 690.356 358.762 687.431 362.756 682.481 364.219 678.263 362.419 676.912 361.8 612.956 325.913 536.062 282.6 441.956 229.669 395.831 203.962 394.875 204.019 394.087 204.075 365.4 210.319 331.031 217.856 296.719 225.45 226.069 240.919 174.094 252.281 122.119 263.644 77.5687 273.544 75.0938 274.275 61.875 278.156 52.7062 288.45 49.2188 303.3 47.925 308.7 47.925 319.95 49.1625 325.631 51.75 337.387 58.1625 347.231 66.7687 352.688 70.5375 355.106 76.5 356.85 79.7625 356.456 82.0125 356.231 107.212 350.719 217.012 326.531 226.069 324.506 234.394 322.875 235.462 322.875 237.881 322.875 241.369 324.619 242.887 326.531 246.544 331.2 245.419 338.344 240.581 341.381 239.4 342.112 222.019 346.162 188.719 353.475 161.156 359.55 128.812 366.637 116.719 369.281 104.681 371.981 90.1125 375.131 84.4875 376.312 70.7625 379.237 66.3187 381.319 59.9062 387.787 52.875 394.819 49.6125 402.131 48.375 413.438 47.7 419.681 48.2062 426.6 49.8937 432.844 51.1875 437.85 55.2375 445.894 58.3312 449.55 62.9437 455.119 70.65 460.125 74.5875 460.125 75.4875 460.125 86.2875 457.987 98.4937 455.344 363.544 398.419 396.45 391.444 398.531 391.669 400.219 391.837 435.487 411.469 543.825 472.387 622.462 516.712 687.375 553.275 688.106 553.781 690.131 555.075 691.875 558.675 691.875 561.544 691.875 565.819 690.131 568.912 686.7 570.712 685.912 571.106 664.537 576 639.169 581.569 613.856 587.138 563.794 598.162 527.906 606.037 492.019 613.912 441.281 625.05 415.069 630.787 388.294 636.694 366.3 641.25 364.725 641.25 362.137 641.25 353.925 636.806 215.719 561.037Z" fill="#FFFFFF" fill-rule="nonzero" fill-opacity="1" transform="matrix(1 0 0 -1 280 720)"/><path d="M677.531 466.481C676.631 466.031 612.844 430.144 535.837 386.831L395.831 308.081 390.431 309.206C387.45 309.825 372.037 313.2 356.119 316.688 329.906 322.425 327.038 322.987 325.069 322.369 316.125 319.669 314.719 308.025 322.875 303.862 325.8 302.4 393.75 287.381 397.575 287.325 399.15 287.325 401.062 287.887 403.2 289.012 404.944 289.969 469.8 326.419 547.312 370.012 658.462 432.619 688.556 449.775 689.85 451.35 692.212 454.219 692.55 459 690.694 462.375 688.162 466.875 681.919 468.787 677.531 466.481Z" fill="#FFFFFF" fill-rule="nonzero" fill-opacity="1" transform="matrix(1 0 0 -1 280 720)"/><path d="M259.312 333.506C259.312 291.375 259.481 280.688 260.044 281.025 260.381 281.306 265.781 284.625 271.913 288.45L283.106 295.425 285.694 292.5C295.706 281.306 308.587 267.244 308.981 267.244 309.206 267.188 309.375 292.219 309.375 322.762L309.375 378.394 285.075 382.444C271.688 384.637 260.381 386.438 260.044 386.438 259.481 386.438 259.312 375.469 259.312 333.506Z" fill="#FFFFFF" fill-rule="nonzero" fill-opacity="1" transform="matrix(1 0 0 -1 280 720)"/></g></g></svg>